<mxfile host="app.diagrams.net" modified="2021-07-06T06:59:16.387Z" agent="5.0 (Windows NT 10.0; Win64; x64) AppleWebKit/537.36 (KHTML, like Gecko) Chrome/91.0.4472.114 Safari/537.36" etag="oc1hzP9Pw3xFpfIk6xQL" version="14.8.4" type="github">
  <diagram id="MzdNXHHlcmyqoQ2pdysI" name="Page-1">
    <mxGraphModel dx="1422" dy="794" grid="1" gridSize="10" guides="1" tooltips="1" connect="1" arrows="1" fold="1" page="1" pageScale="1" pageWidth="827" pageHeight="1169" math="0" shadow="0">
      <root>
        <mxCell id="0" />
        <mxCell id="1" parent="0" />
        <mxCell id="iNBkIky4yqxIHMfFuuBh-1" value="" style="rounded=1;whiteSpace=wrap;html=1;" parent="1" vertex="1">
          <mxGeometry x="80" y="190" width="170" height="170" as="geometry" />
        </mxCell>
        <mxCell id="iNBkIky4yqxIHMfFuuBh-8" style="edgeStyle=orthogonalEdgeStyle;rounded=0;orthogonalLoop=1;jettySize=auto;html=1;entryX=-0.018;entryY=0.622;entryDx=0;entryDy=0;entryPerimeter=0;" parent="1" source="iNBkIky4yqxIHMfFuuBh-2" target="iNBkIky4yqxIHMfFuuBh-5" edge="1">
          <mxGeometry relative="1" as="geometry">
            <Array as="points">
              <mxPoint x="315" y="458" />
              <mxPoint x="315" y="385" />
              <mxPoint x="378" y="385" />
            </Array>
          </mxGeometry>
        </mxCell>
        <mxCell id="iNBkIky4yqxIHMfFuuBh-2" value="Actor" style="shape=umlActor;verticalLabelPosition=bottom;verticalAlign=top;html=1;outlineConnect=0;" parent="1" vertex="1">
          <mxGeometry x="220" y="428.13" width="30" height="60" as="geometry" />
        </mxCell>
        <mxCell id="iNBkIky4yqxIHMfFuuBh-3" value="NVKQ" style="rounded=1;whiteSpace=wrap;html=1;" parent="1" vertex="1">
          <mxGeometry x="110" y="200" width="120" height="60" as="geometry" />
        </mxCell>
        <mxCell id="iNBkIky4yqxIHMfFuuBh-7" style="edgeStyle=orthogonalEdgeStyle;rounded=0;orthogonalLoop=1;jettySize=auto;html=1;entryX=-0.018;entryY=0.611;entryDx=0;entryDy=0;entryPerimeter=0;exitX=1;exitY=0.5;exitDx=0;exitDy=0;" parent="1" source="iNBkIky4yqxIHMfFuuBh-1" target="iNBkIky4yqxIHMfFuuBh-5" edge="1">
          <mxGeometry relative="1" as="geometry">
            <Array as="points">
              <mxPoint x="315" y="275" />
              <mxPoint x="315" y="385" />
              <mxPoint x="378" y="385" />
            </Array>
          </mxGeometry>
        </mxCell>
        <mxCell id="iNBkIky4yqxIHMfFuuBh-4" value="Hệ thống khác..." style="rounded=1;whiteSpace=wrap;html=1;" parent="1" vertex="1">
          <mxGeometry x="110" y="280" width="120" height="60" as="geometry" />
        </mxCell>
        <mxCell id="iNBkIky4yqxIHMfFuuBh-9" style="edgeStyle=orthogonalEdgeStyle;rounded=0;orthogonalLoop=1;jettySize=auto;html=1;entryX=0;entryY=0.5;entryDx=0;entryDy=0;" parent="1" source="iNBkIky4yqxIHMfFuuBh-5" target="iNBkIky4yqxIHMfFuuBh-6" edge="1">
          <mxGeometry relative="1" as="geometry" />
        </mxCell>
        <mxCell id="iNBkIky4yqxIHMfFuuBh-5" value="web auto-labeling" style="rounded=1;whiteSpace=wrap;html=1;" parent="1" vertex="1">
          <mxGeometry x="390" y="330" width="110" height="90" as="geometry" />
        </mxCell>
        <mxCell id="iNBkIky4yqxIHMfFuuBh-11" value="" style="edgeStyle=orthogonalEdgeStyle;rounded=0;orthogonalLoop=1;jettySize=auto;html=1;" parent="1" source="iNBkIky4yqxIHMfFuuBh-6" target="iNBkIky4yqxIHMfFuuBh-10" edge="1">
          <mxGeometry relative="1" as="geometry" />
        </mxCell>
        <mxCell id="iNBkIky4yqxIHMfFuuBh-6" value="Apache AirFlow" style="rounded=1;whiteSpace=wrap;html=1;" parent="1" vertex="1">
          <mxGeometry x="590" y="330" width="120" height="90" as="geometry" />
        </mxCell>
        <mxCell id="iNBkIky4yqxIHMfFuuBh-10" value="Model" style="rounded=1;whiteSpace=wrap;html=1;" parent="1" vertex="1">
          <mxGeometry x="800" y="331.87" width="130" height="86.25" as="geometry" />
        </mxCell>
      </root>
    </mxGraphModel>
  </diagram>
</mxfile>
